<mxfile host="app.diagrams.net" modified="2023-05-08T09:50:01.675Z" agent="Mozilla/5.0 (Windows NT 10.0; Win64; x64) AppleWebKit/537.36 (KHTML, like Gecko) Chrome/113.0.0.0 Safari/537.36 Edg/113.0.1774.35" etag="ayDTDh4iGzC9pkRZInUB" version="21.2.9" type="github">
  <diagram name="第 1 页" id="6xigYP2YSiPS-W8M_W-d">
    <mxGraphModel dx="928" dy="579" grid="1" gridSize="10" guides="1" tooltips="1" connect="1" arrows="1" fold="1" page="1" pageScale="1" pageWidth="827" pageHeight="1169" math="0" shadow="0">
      <root>
        <mxCell id="0" />
        <mxCell id="1" parent="0" />
        <mxCell id="XxkEVFD_VKsQfanu5EQY-4" style="edgeStyle=orthogonalEdgeStyle;rounded=0;orthogonalLoop=1;jettySize=auto;html=1;exitX=0.5;exitY=1;exitDx=0;exitDy=0;entryX=0.5;entryY=0;entryDx=0;entryDy=0;strokeWidth=2;" edge="1" parent="1" source="XxkEVFD_VKsQfanu5EQY-1" target="XxkEVFD_VKsQfanu5EQY-2">
          <mxGeometry relative="1" as="geometry" />
        </mxCell>
        <mxCell id="XxkEVFD_VKsQfanu5EQY-1" value="&lt;font style=&quot;font-size: 24px;&quot;&gt;权重层&lt;/font&gt;" style="rounded=0;whiteSpace=wrap;html=1;" vertex="1" parent="1">
          <mxGeometry x="200" y="140" width="200" height="60" as="geometry" />
        </mxCell>
        <mxCell id="XxkEVFD_VKsQfanu5EQY-8" style="edgeStyle=orthogonalEdgeStyle;rounded=0;orthogonalLoop=1;jettySize=auto;html=1;exitX=0.5;exitY=1;exitDx=0;exitDy=0;strokeWidth=2;" edge="1" parent="1" source="XxkEVFD_VKsQfanu5EQY-2">
          <mxGeometry relative="1" as="geometry">
            <mxPoint x="300" y="350" as="targetPoint" />
          </mxGeometry>
        </mxCell>
        <mxCell id="XxkEVFD_VKsQfanu5EQY-2" value="&lt;font style=&quot;font-size: 24px;&quot;&gt;权重层&lt;/font&gt;" style="rounded=0;whiteSpace=wrap;html=1;" vertex="1" parent="1">
          <mxGeometry x="200" y="260" width="200" height="60" as="geometry" />
        </mxCell>
        <mxCell id="XxkEVFD_VKsQfanu5EQY-5" value="&lt;font style=&quot;font-size: 20px;&quot;&gt;ReLU&lt;/font&gt;" style="text;html=1;strokeColor=none;fillColor=none;align=center;verticalAlign=middle;whiteSpace=wrap;rounded=0;" vertex="1" parent="1">
          <mxGeometry x="300" y="210" width="60" height="30" as="geometry" />
        </mxCell>
        <mxCell id="XxkEVFD_VKsQfanu5EQY-6" value="" style="endArrow=classic;html=1;rounded=0;strokeWidth=2;entryX=0.5;entryY=0;entryDx=0;entryDy=0;" edge="1" parent="1" target="XxkEVFD_VKsQfanu5EQY-1">
          <mxGeometry width="50" height="50" relative="1" as="geometry">
            <mxPoint x="300" y="80" as="sourcePoint" />
            <mxPoint x="130" y="160" as="targetPoint" />
          </mxGeometry>
        </mxCell>
        <mxCell id="XxkEVFD_VKsQfanu5EQY-7" value="&lt;font style=&quot;font-size: 20px;&quot;&gt;&lt;b&gt;x&lt;/b&gt;&lt;/font&gt;" style="text;html=1;strokeColor=none;fillColor=none;align=center;verticalAlign=middle;whiteSpace=wrap;rounded=0;" vertex="1" parent="1">
          <mxGeometry x="255" y="90" width="60" height="30" as="geometry" />
        </mxCell>
        <mxCell id="XxkEVFD_VKsQfanu5EQY-9" value="" style="shape=orEllipse;perimeter=ellipsePerimeter;whiteSpace=wrap;html=1;backgroundOutline=1;strokeWidth=2;" vertex="1" parent="1">
          <mxGeometry x="285" y="350" width="30" height="30" as="geometry" />
        </mxCell>
        <mxCell id="XxkEVFD_VKsQfanu5EQY-12" value="" style="endArrow=classic;html=1;rounded=0;exitX=0.5;exitY=1;exitDx=0;exitDy=0;strokeWidth=2;" edge="1" parent="1" source="XxkEVFD_VKsQfanu5EQY-9">
          <mxGeometry width="50" height="50" relative="1" as="geometry">
            <mxPoint x="40" y="480" as="sourcePoint" />
            <mxPoint x="300" y="410" as="targetPoint" />
          </mxGeometry>
        </mxCell>
        <mxCell id="XxkEVFD_VKsQfanu5EQY-14" value="" style="curved=1;endArrow=classic;html=1;rounded=0;entryX=1;entryY=0.5;entryDx=0;entryDy=0;strokeWidth=2;" edge="1" parent="1" target="XxkEVFD_VKsQfanu5EQY-9">
          <mxGeometry width="50" height="50" relative="1" as="geometry">
            <mxPoint x="300" y="100" as="sourcePoint" />
            <mxPoint x="760" y="110" as="targetPoint" />
            <Array as="points">
              <mxPoint x="440" y="110" />
              <mxPoint x="500" y="230" />
              <mxPoint x="450" y="350" />
            </Array>
          </mxGeometry>
        </mxCell>
        <mxCell id="XxkEVFD_VKsQfanu5EQY-15" value="&lt;font style=&quot;font-size: 20px;&quot;&gt;&lt;b&gt;x&lt;/b&gt;&lt;/font&gt;" style="text;html=1;strokeColor=none;fillColor=none;align=center;verticalAlign=middle;whiteSpace=wrap;rounded=0;" vertex="1" parent="1">
          <mxGeometry x="480" y="210" width="60" height="30" as="geometry" />
        </mxCell>
      </root>
    </mxGraphModel>
  </diagram>
</mxfile>
